<?xml version="1.0" encoding="utf-8"?>
<!-- Generator: Adobe Illustrator 16.0.4, SVG Export Plug-In . SVG Version: 6.00 Build 0)  -->
<!DOCTYPE svg PUBLIC "-//W3C//DTD SVG 1.0//EN" "http://www.w3.org/TR/2001/REC-SVG-20010904/DTD/svg10.dtd">
<svg version="1.0" xmlns="http://www.w3.org/2000/svg" xmlns:xlink="http://www.w3.org/1999/xlink" x="0px" y="0px" width="48px"
	 height="48px" viewBox="0 0 48 48" enable-background="new 0 0 48 48" xml:space="preserve">
<g id="Layer_1">
	<g>
		<path fill="#CC0000" d="M44.181,32.038c-0.315,3.772-3.671,6.859-7.457,6.859H10.909c-3.786,0-7.142-3.087-7.457-6.859
			L2.084,15.683c-0.316-3.772,2.523-6.859,6.309-6.859h30.846c3.786,0,6.625,3.087,6.31,6.859L44.181,32.038z"/>
		<g>
			<path fill="#FFDE17" d="M23.796,32.29c-7.39-0.531-3.974-3.132-7.268-3.473c-3.495-0.361-4.239-0.065-5.376,0
				c-1.136,0.064-0.699-0.371-0.699-0.371s2.363-1.114,4.72-2.972c1.536-1.208,3.037-2.447,3.672-4.809
				c1.484-5.51,2.856-7.245,4.972-7.069c2.116-0.176,3.486,1.56,4.972,7.069c0.637,2.362,2.137,3.601,3.673,4.809
				c2.355,1.858,4.719,2.972,4.719,2.972s0.438,0.435-0.699,0.371c-1.137-0.065-1.921-0.639-5.376,0
				c-3.546,0.655,0.122,2.942-7.268,3.473l-0.021,0L23.796,32.29z"/>
		</g>
		<path fill="#414042" d="M6.805,20.77c0,0-1.758-2.967-0.346-4.933c0.46-0.64,2.361-0.77,3.714-0.509
			c0.885,0.17,1.859,0.442,3.089,1.458c0.226,0.186,0.229,0.869,0.312,0.541c0.218-0.874-1.938-2.189-2.835-2.475
			c-2.792-0.884-4.782,0.634-4.828,0.836c-0.085,0.37-0.231,2.246-0.105,3.131C5.881,19.361,6.805,20.77,6.805,20.77z"/>
		<path fill="#414042" d="M29.911,27.463c-0.289,0.693-0.719,1.498-1.17,2.298c-0.289,0.888-0.893,2.435-1.816,3.409
			c-0.147,0.154-0.276,0.324-0.395,0.51c-0.257,0.559-0.462,1.091-0.632,1.598c-1.296,3.829-0.562,5.667-2.156,6.869
			c-1.652-1.202-0.863-3.029-2.146-6.836c-0.176-0.522-0.391-1.074-0.657-1.651c-0.003-0.004-0.006-0.01-0.006-0.014
			c-0.112-0.17-0.234-0.33-0.372-0.475c-0.928-0.978-1.533-2.537-1.826-3.422c-0.445-0.793-0.869-1.588-1.154-2.274
			c-0.536-0.765-0.966-1.528-0.296-1.928c1.553-0.935,3.347-5.069,4.476-7.151c0.318-0.586,0.581-1.011,0.773-1.154
			c0.378-0.285,0.767-0.427,1.131-0.476c0.026,0.003,0.052,0.007,0.078,0.014c0.026-0.007,0.048-0.011,0.074-0.014
			c0.369,0.049,0.757,0.19,1.136,0.476c0.189,0.144,0.456,0.568,0.772,1.154c1.126,2.082,2.923,6.217,4.476,7.151
			C30.867,25.945,30.444,26.699,29.911,27.463z"/>
		<path fill="#FFDE17" d="M15.285,18.602c0,0-0.561,0.739-0.612,0.969c-0.051,0.23-2.896,6.084-8.256,1.672
			c0,0-1.739-2.142-1.017-4.887c0.059-0.226-0.072-0.754,0.098-0.927c2.451-2.475,8.25-0.969,9.303,1.54
			C14.967,17.365,15.285,18.602,15.285,18.602z"/>
		<path fill="#414042" d="M6.704,20.879c0,0-2.051-3.131-0.401-5.208c0.536-0.675,2.756-0.812,4.335-0.536
			c1.033,0.181,2.173,0.467,3.608,1.54c0.262,0.197,0.268,0.917,0.363,0.571c0.255-0.923-2.264-2.313-3.312-2.613
			c-3.26-0.934-5.583,0.669-5.637,0.883c-0.101,0.39-0.271,2.371-0.125,3.306C5.626,19.394,6.704,20.879,6.704,20.879z"/>
		<ellipse fill="#414042" cx="10.896" cy="18.013" rx="2.348" ry="2.411"/>
		<path opacity="0.8" fill="#F1F2F2" d="M6.054,17.887c0.249-5.342,6.866-0.754,6.68-0.641c-1.085,0.663-2.89,0.587-3.483,0.243
			c-0.593-0.346-1.379-0.572-1.972-0.294C6.685,17.471,6.035,18.283,6.054,17.887z"/>
		<path fill="#FFDE17" d="M32.199,18.602c0,0,0.562,0.739,0.613,0.969c0.05,0.23,2.895,6.084,8.255,1.672
			c0,0,1.739-2.142,1.017-4.887c-0.059-0.226,0.074-0.754-0.098-0.927c-2.45-2.475-8.25-0.969-9.302,1.54
			C32.519,17.365,32.199,18.602,32.199,18.602z"/>
		<path fill="#414042" d="M40.78,20.879c0,0,2.051-3.131,0.402-5.208c-0.536-0.675-2.756-0.812-4.336-0.536
			c-1.033,0.181-2.172,0.467-3.607,1.54c-0.263,0.197-0.269,0.917-0.364,0.571c-0.255-0.923,2.264-2.313,3.311-2.613
			c3.261-0.934,5.583,0.669,5.638,0.883c0.101,0.39,0.271,2.371,0.124,3.306C41.857,19.394,40.78,20.879,40.78,20.879z"/>
		<ellipse fill="#414042" cx="36.588" cy="18.013" rx="2.348" ry="2.411"/>
		<path opacity="0.9" fill="#F1F2F2" d="M41.431,17.887c-0.248-5.342-6.865-0.754-6.679-0.641c1.084,0.663,2.89,0.587,3.483,0.243
			c0.594-0.346,1.378-0.572,1.972-0.294C40.8,17.471,41.45,18.283,41.431,17.887z"/>
		<path opacity="0.8" fill="#F1F2F2" d="M9.735,21.144c-0.352,0.571-1.735,0-2.272-0.728c-0.397-0.539-0.521-0.767-0.17-1.336
			c0.353-0.571,0.714-0.717,1.285-0.365C9.146,19.067,10.088,20.573,9.735,21.144z"/>
		<circle opacity="0.5" fill="#00FDFF" cx="37.18" cy="17.763" r="8.655"/>
		<circle opacity="0.5" fill="#FFFFFF" cx="37.439" cy="17.464" r="8.259"/>
		<path fill="#414042" d="M47.207,22.896c-0.076-0.572-0.479-1.024-0.996-1.19c0.699-1.596,0.985-3.397,0.738-5.248
			c-0.718-5.386-5.686-9.183-11.071-8.464c-5.387,0.718-9.186,5.685-8.467,11.072c0.719,5.386,5.687,9.185,11.073,8.466
			c2.53-0.338,4.711-1.615,6.237-3.431c0.31,0.319,0.762,0.494,1.234,0.43C46.751,24.425,47.312,23.692,47.207,22.896z
			 M38.325,26.341c-4.73,0.632-9.093-2.703-9.724-7.434c-0.632-4.73,2.704-9.093,7.436-9.724c4.729-0.631,9.092,2.704,9.722,7.435
			c0.272,2.039-0.192,4.008-1.188,5.642c-0.028,0.041-0.054,0.083-0.078,0.126C43.167,24.477,40.964,25.989,38.325,26.341z
			 M45.868,23.869c-0.289,0.039-0.562-0.085-0.729-0.302c0.289-0.396,0.549-0.814,0.777-1.251c0.323,0.064,0.583,0.325,0.628,0.668
			C46.604,23.416,46.299,23.812,45.868,23.869z"/>
		<path opacity="0.8" fill="#FFFFFF" d="M38.339,9.786c-0.969,0.545,2.436,1.365,4.206,3.85c1.771,2.483,1.759,5.057,2.108,4.801
			c0.511-0.374,0.909-3.14-0.862-5.625C42.021,10.327,38.871,9.487,38.339,9.786z"/>
	</g>
</g>
<g id="Guides" display="none">
</g>
</svg>
