<?xml version="1.0" encoding="utf-8"?>
<!-- Generator: Adobe Illustrator 16.0.4, SVG Export Plug-In . SVG Version: 6.00 Build 0)  -->
<!DOCTYPE svg PUBLIC "-//W3C//DTD SVG 1.1//EN" "http://www.w3.org/Graphics/SVG/1.1/DTD/svg11.dtd">
<svg version="1.1" id="Layer_1" xmlns="http://www.w3.org/2000/svg" xmlns:xlink="http://www.w3.org/1999/xlink" x="0px" y="0px"
	 width="1920px" height="1080px" viewBox="0 0 1920 1080" enable-background="new 0 0 1920 1080" xml:space="preserve">
<rect y="0.485" fill="#1A1A1B" width="1920" height="1079.031"/>
<g>
	<defs>
		<rect id="SVGID_1_" x="0" y="0" width="1920" height="1080"/>
	</defs>
	<clipPath id="SVGID_2_">
		<use xlink:href="#SVGID_1_"  overflow="visible"/>
	</clipPath>
	<path clip-path="url(#SVGID_2_)" d="M2613.451,489.486L965.49,539.343l1.743-0.412l1644.878-82.692
		C2612.665,467.27,2613.115,478.454,2613.451,489.486z M2612.182,622.37c-0.544,11.001-1.209,22.166-1.974,33.181L968.123,541.502
		l-1.833-0.471L2612.182,622.37z M2600.033,323.157L965.39,538.151l0.289-0.103l1629.637-248.143
		C2596.995,300.937,2598.583,312.125,2600.033,323.157z M2595.527,788.696c-1.664,10.991-3.466,22.122-5.354,33.087L965.561,541.986
		l-0.514-0.203L2595.527,788.696z M2569.71,158.055L970.156,536.786l1591.441-411.481
		C2564.402,136.155,2567.131,147.176,2569.71,158.055z M2561.977,953.225c-2.768,10.751-5.694,21.65-8.693,32.396L967.168,542.617
		l-1.038-0.406L2561.977,953.225z M2522.671-3.354L973.15,535.234L2511.24-35.177C2515.148-24.642,2518.991-13.933,2522.671-3.354z
		 M2511.783,1113.705c-3.886,10.507-7.938,21.137-12.05,31.593L968.14,542.998L2511.783,1113.705z M2459.479-159.027
		L970.129,535.711l1474.816-725.085C2449.879-179.337,2454.771-169.128,2459.479-159.027z M2445.452,1268.344
		c-4.935,10.054-10.046,20.205-15.192,30.167L968.178,543.406l0.055,0.023L2445.452,1268.344z M2380.938-307.222L964.676,538.081
		l-0.249,0.061l1399.067-873.934C2369.367-326.387,2375.236-316.775,2380.938-307.222z M2363.95,1415.058
		c-5.904,9.468-11.986,19.001-18.081,28.342L964.236,541.863l0.249,0.098L2363.95,1415.058z M2288.176-446.184L969.613,533.345
		L2267.784-473.049C2274.66-464.183,2281.521-455.144,2288.176-446.184z M2268.21,1552.503c-6.786,8.764-13.753,17.576-20.71,26.192
		L964.316,542.93l1.565,0.805L2268.21,1552.503z M2181.732-575.274L968.027,532.954l-3.423,2.659L2158.972-599.703
		C2166.607-591.672,2174.266-583.452,2181.732-575.274z M2159.341,1679.313c-7.573,7.975-15.35,15.996-23.108,23.847
		L964.902,545.098l2.372,2.865l-3.075-3.561l2.625,3.918l-0.149,0.1l1071.677,1246.04c-8.343,7.176-16.895,14.381-25.415,21.416
		L964.319,546.24l1.455,2.736l-1.674-3l-2.292-2.775l-0.339-0.834l1.752,2.037l-1.061-1.9l-1.038-0.924l0.229,0.148l-0.015-0.082
		l0.404,0.324l-0.644-0.688l-0.005,0.043l-0.045-0.043v0.004l-0.014-0.014l0.041,0.201l-0.004,0.023l-0.002-0.006l0.001,0.018
		l-0.001,0.008l0.053,0.182l-0.034-0.025l0.011,0.1l-0.056-0.033l-0.015,0.115l0.088,0.102l0.048,0.465L961,542.096l-0.014,0.113
		l-0.068-0.086l-0.038-0.441l0.037,0.043l-0.13-0.365l0.104,0.07l0.013-0.131l0.013,0.008v-0.113v-0.002l-0.1-0.049l0.1,0.033v-0.02
		l-0.146-0.145v0.008l-0.003-0.004l0.003-0.004l-0.082-0.069l0.01-0.003l-0.009-0.007l-0.01,0.002l-0.027-0.034l-0.002,0.008
		l-0.047-0.045l-0.105,0.098l0.01,0.006l0.043-0.006l-0.026,0.014l0.014,0.006l-0.008,0.014l0.02,0.017l-0.022-0.01l-0.047,0.088
		v0.002l0.124,0.02l-0.004,0.02l-0.115-0.02l0.095,0.113l-0.011,0.047l-0.044-0.033l0.036,0.072l-0.006,0.021l0.041,0.131
		l-0.062-0.039l-0.04,0.184l-0.183-0.219l-0.044,0.08l0.194,0.277l-0.055,0.238l-0.152-0.49l-0.066,0.119l0.201,0.455l-0.002,0.01
		l0.006,0.016l-0.007-0.012l-0.018,0.08l-0.185-0.381l-0.008,0.428l-0.087-0.164l0.083,0.285l-0.016,0.768l-0.198,0.875
		l-0.194-0.951l0.012-0.668l-0.108,0.195l-0.08-0.383l0.199-0.344l0.022-0.305l-0.008-0.012l-0.009,0.016l0.002-0.033l-0.065-0.123
		l0.056-0.184l-0.006-0.006l-0.067,0.156l-0.021-0.037l-0.179,0.504l-0.049-0.234l0.213-0.297l-0.04-0.076l-0.202,0.234l-0.018-0.09
		l-0.036,0.111l0.007,0.033l-0.026,0.031l-0.081,0.266l0.002,0.035l0.132-0.184l0.053,0.273l-0.152,0.307l0.003,0.045l-0.139,0.326
		l-0.017-0.154l-0.156,0.223l-0.308,1.047l0.009-0.018l-0.011,0.023l-0.034,0.348l0.405-0.898l-0.648,1.936l0.046-0.369
		l-0.211,0.377l0.029-0.133l-0.056,0.184l-0.222,0.398l0.418-1.201l-0.07,0.162l0.354-1.426l-0.057,0.082l0.067-0.574l0.104-0.143
		l-0.021,0.223l0.062-0.277l0.259-0.355l-0.021-0.217l-0.147,0.174l0.118-0.469l-0.005-0.033l0.181-0.111v0.006l0.11-0.074
		l0.023,0.129l0.035-0.105l-0.01-0.055l0.043-0.043l-0.007,0.021l0.172-0.107l-0.018-0.033l-0.01,0.004l0.009-0.006l-0.007-0.012
		l-0.099,0.014l0.092-0.025l-0.052-0.099l0.014-0.04l0.035,0.005l-0.034-0.008l0.025-0.039h-0.007l0.025-0.022l-0.015-0.022
		l0.009-0.031l-0.006-0.006l-0.01,0.03l-0.021-0.032l-0.075,0.057l-0.041-0.077l-0.105,0.089l-0.007-0.039l0.105-0.064l-0.015-0.024
		l-0.06,0.014l0.021-0.047l-0.072,0.033l-0.013-0.07l-0.03,0.002l0.027-0.011l-0.002-0.012l0.02-0.019l-0.036-0.056l0.019-0.076
		l-0.024-0.045l-0.016,0.013l-0.005-0.025h0.015l-0.013-0.021l-0.004,0.01l-0.004-0.022l0.001,0.001l-0.001-0.005l-0.002,0.002
		l-0.013-0.03l0.006-0.004l-0.047-0.06l0.011,0.051l-0.021-0.007l0.006,0.035l0.019-0.007l0.038,0.023l-0.029,0.03l0.003,0.005
		l0.028-0.002l-0.021,0.046l0.002,0.012l-0.031,0.053l0.001,0.003h-0.002l-0.046,0.099l0.058,0.021l-0.069,0.004l-0.088,0.158
		L959,540.857l-0.009-0.109l-0.01,0.104l-0.053-0.01l0.007-0.054l-0.051,0.046l-0.015-0.001l-0.001,0.014h0.001l-0.103,0.098h0.003
		l-0.118,0.12l0.012-0.02l-0.257,0.135l0.126-0.178l0.189-0.059l-0.181,0.047l0.1-0.147l-0.03-0.003l0.023-0.027l0.027,0.003
		l0.011-0.016l-0.022-0.003l0.061-0.072l-0.069,0.005l0.076-0.071l0.049,0.001l0.178-0.183l-0.006,0.026l0.026-0.011l-0.002-0.016
		l0.012-0.022l-0.016-0.018l0.053-0.06l0.011,0.003l0.006-0.005v0.007h0.005l0.038-0.025l-0.018-0.007l0.052-0.044l-0.023-0.013
		l0.023-0.026l0.024,0.018l0.016-0.017l-0.002-0.003l0.004,0.002l0.007-0.006l0.027,0.055l0.021-0.005l-0.018-0.024l0.018,0.007
		l-0.015-0.064l0.015-0.012l-0.011-0.011l-0.008,0.004l-0.013-0.019l0.008-0.01l-0.01-0.045l0.032-0.053l-0.036,0.011l0.036-0.053
		l-0.034-0.039l0.05-0.038l0.017,0.03l0.004-0.005l0.007,0.013l0.017-0.029l0.057,0.048l0.056-0.066l0.075,0.031l-0.004,0.007
		l0.008-0.006l0.009,0.003l-0.023,0.018l0.072,0.081l-0.072,0.028l0.042,0.035l-0.074,0.082l0.001,0.006l0.128-0.045l0.014,0.009
		l-0.098,0.094l0.009,0.013l0.11-0.043v0.002l0.026-0.009l-0.011-0.024l0.018,0.022l0.008-0.004l0.06,0.051l0.014-0.015l0.044,0.051
		l-0.003,0.006l0.017,0.012v-0.001l0.073,0.061l0.021-0.249l-0.005-0.018l0.034-0.035l-0.029-0.028l0.104-0.042l-0.083-0.031
		l0.021-0.062l-0.047,0.056l-0.009-0.036l-0.044,0.014v-0.001l-0.002,0.001l-0.074-0.032l0.025-0.057l-0.051,0.034l-0.011-0.013
		l-0.036,0.013l-0.062-0.052l0.029-0.026l-0.018-0.021l0.026,0.01l0.1-0.087l-0.072-0.102l0.032-0.023l-0.002-0.002h0.004
		l0.151-0.113l-0.061,0.002l0.087-0.067l0.019,0.019l0.019-0.01l0.01,0.003l0.034-0.025v-0.001l0.026-0.019l0.002,0.005l0.015-0.005
		l-0.011-0.005l0.005-0.005l-0.016-0.007l0.001,0.005l-0.01-0.003l0.003-0.005l-0.069-0.022l0.017-0.022l-0.027-0.023l-0.019,0.012
		l-0.009-0.024l-0.007,0.004l-0.002-0.002l0.009-0.01l-0.004-0.002h0.004l0.02-0.005l-0.004,0.001l0.064-0.005l0.003,0.005
		l-0.047,0.023l0.029,0.015l0.021-0.024l0.034,0.051l0.1-0.075l-0.02,0.063l0.062-0.063l0.008,0.01l0.013-0.01l-0.002-0.003
		l0.018-0.008l0.004,0.006h0.022l0.02,0.031l0.009-0.005l-0.009-0.026l0.012-0.004l-0.015-0.011l0.019,0.011l0.037-0.014v0.012
		l0.023-0.002l-0.005,0.008l0.024-0.008l-0.002-0.004h0.001l-0.006-0.007l-0.004,0.004l-0.02-0.014l0.009-0.01l-0.019-0.028
		l-0.001,0.03l-0.032-0.02l0.025-0.021l-0.011-0.014l0.019,0.012l0.011-0.01l0.062,0.004l0.006-0.006l-0.02-0.035l0.086-0.062
		l-0.105,0.027l-0.001-0.004l-0.078,0.042l-0.014-0.019l-0.038,0.008l0.019-0.037l-0.004-0.007l0.019-0.063l-0.04,0.034l-0.007-0.01
		l0.035-0.041l0.018,0.003l0.011-0.029l-0.005-0.002l0.011-0.012l-0.034-0.06l-0.021,0.063l-0.029-0.002l0.018-0.045l-0.045,0.03
		l-0.021-0.074l0.077-0.011l-0.028-0.048l-0.062,0.007l-0.008-0.024l0.034-0.05l-0.045-0.083l-0.018,0.034l-0.023-0.078l0.009-0.015
		l-0.03-0.062l-0.003,0.005l-0.043-0.077l-0.05,0.09l0.029,0.074l-0.029,0.042l-0.03-0.048l0.002-0.022l-0.007,0.014l-0.091-0.213
		l0.021-0.102l0.077,0.188l0.004-0.156l-0.062-0.111l0.04-0.172l-0.105-0.354l0.136,0.199l0.001-0.061l0.011,0.021l0.244-1.084
		l0.152,0.738l-0.009,0.385l-0.186,0.319l0.063,0.096l-0.013,0.021l0.016,0.024l0.012-0.024l0.019,0.027l-0.015,0.029l0.074,0.14
		l0.019-0.022l-0.002,0.053l0.017,0.029l-0.019,0.069l0.024-0.057l0.029,0.057l0.023-0.07l0.088,0.129l0.084-0.099l0.014,0.064
		l-0.085,0.053l0.021,0.033l-0.081,0.012l0.023,0.043l0.051-0.009l-0.039,0.032l0.041,0.074l0.049-0.03l-0.026,0.074l0.005,0.007
		l0.047-0.098l0.035,0.05l-0.05,0.053l0.056-0.04l0.004,0.004l0.002-0.004l0.006,0.015h-0.002l0.013,0.067l-0.023,0.005
		l-0.063-0.009l0.011,0.022l-0.044,0.011l0.087,0.07l0.049-0.023l0.014,0.067l-0.025,0.026l0.032,0.004l-0.012,0.029l0.017-0.005
		l0.002,0.013l0.129-0.006l0.008,0.013l0.013-0.012l0.028,0.072l0.044-0.078l0.03,0.188h-0.011l0.003,0.021l0.012-0.014l0.015,0.023
		l-0.025,0.015l0.001,0.009l-0.061,0.03l0.034-0.039l-0.087,0.06l0.013,0.025l0.004-0.003v0.017h-0.001l-0.013,0.01l-0.007-0.005
		l0.009-0.01l-0.043-0.021l-0.01,0.003l-0.008-0.005l0.002-0.008l-0.022-0.013l0.002,0.006l-0.083-0.046h-0.063l0.128,0.081
		l-0.023,0.008l-0.143-0.064l0.024-0.024l-0.176-0.048l0.07,0.052l-0.092,0.005l-0.008-0.005l0.012-0.035l-0.029,0.031h-0.004
		l-0.02,0.011l0.005,0.004l-0.013,0.012l0.021,0.01l-0.012,0.032l0.017,0.011l0.012-0.033l0.102,0.063l0.012-0.01l0.033,0.018
		l-0.001,0.006l0.046,0.015l-0.074,0.048l0.045,0.057l-0.072,0.023l-0.006-0.003l-0.028,0.017l0.011,0.025l-0.017,0.035
		l-0.021-0.051l-0.006,0.001l-0.027-0.081l0.005-0.001l-0.001-0.002h-0.006l-0.032-0.043l0.006-0.02l-0.014-0.026l-0.01,0.032
		l-0.02-0.018l-0.039,0.113l-0.071-0.079l-0.029,0.029l0.062,0.062l-0.083,0.027l0.016,0.055l-0.076-0.032l-0.1,0.058l0.011-0.025
		l-0.028,0.01l0.018,0.016l-0.053,0.078l0.026,0.01l0.026-0.083l0.062,0.056l-0.082,0.03l0.112,0.04l0.023-0.021l0.041,0.042
		l0.067-0.023l0.012,0.056l0.002-0.009l0.017,0.017l0.059-0.021l-0.001,0.042l0.008,0.004l-0.011,0.075l-0.008-0.004l0.008,0.008
		l-0.019,0.043l0.003,0.006l0.016-0.02l-0.002,0.067l0.037,0.05l-0.017,0.013l0.004,0.013l-0.026,0.01l-0.003,0.101l0.063-0.002
		l0.002,0.01l0.012-0.01l-0.011,0.012l0.008,0.022l0.016-0.034l0.194-0.02l0.02,0.012l-0.008-0.021l0.006-0.002l0.044,0.015
		l0.005-0.002l-0.003,0.004l0.012,0.004l0.035-0.01l-0.007-0.018l0.013-0.005l0.005,0.008l0.095-0.056l-0.045-0.029l0.007-0.013
		l-0.012-0.015l0.02-0.016l0.006,0.007l0.021-0.028l0.064,0.062l0.017-0.008l-0.012,0.051l-0.005-0.005l-0.004,0.059l-0.002-0.003
		l-0.031,0.014l0.026-0.002l-0.082,0.05l0.017,0.004l0.064-0.039l-0.009,0.039l0.021-0.004l0.05,0.294l0.006-0.03l0.089,0.034
		l-0.001-0.08l0.045,0.082l0.012-0.12l-0.031-0.036h-0.025l-0.028-0.063l0.013,0.063l-0.048,0.003l0.015-0.075l0.021,0.009
		l-0.019-0.021l0.008-0.035l0.039,0.068v-0.058l0.063,0.077l0.003-0.011l0.051,0.037h-0.013l0.028,0.026l-0.003-0.021l0.079,0.031
		l-0.023-0.042l-0.056,0.005l-0.051-0.17l0.001-0.021v-0.002l0.028-0.006l0.005,0.003v-0.003l0.032-0.007l-0.016-0.023l0.045,0.016
		l0.017-0.004l-0.012-0.062l-0.071,0.019l-0.006-0.072l0.006-0.005l-0.004-0.003l-0.002,0.002l-0.011-0.127l-0.024,0.044
		l-0.041-0.015l0.056-0.144l-0.002-0.028l0.013,0.024l0.027-0.022l-0.005-0.022l0.009,0.006l0.003-0.028l-0.014,0.005l-0.013-0.069
		l0.03,0.014l0.01-0.083l0.094,0.06l-0.055,0.046l0.02,0.011l0.01-0.008l-0.006,0.01l0.135,0.071l-0.008,0.072l0.044-0.022
		l0.021,0.029l0.05-0.032l0.005,0.003l-0.055,0.032l0.102,0.151l-0.027,0.008l0.186,0.142l0.385-0.011l0.263,0.163l-0.283,0.014
		l-0.308-0.119l0.168,0.13l-0.16,0.007l0.018,0.024l0.352,0.132l-0.146,0.021l-0.138-0.05l0.044,0.062l-0.103,0.018l-0.255-0.196
		l-0.094,0.002l0.084,0.16l0.167,0.047l-0.029,0.006l0.053,0.021l0.106-0.017l-0.006-0.003l0.031,0.002l0.064-0.01l0.009,0.011
		l0.251,0.015l-0.118-0.044l0.121-0.016l0.082,0.062l0.154,0.009l0.871,0.323l-0.471-0.304l0.009,0.002l-0.225-0.147l0.007-0.002
		l0.24,0.149l0.304,0.016l0.659,0.322l-0.157-0.01l-0.758-0.297l0.441,0.276l-0.044-0.002l0.396,0.221l-1.36-0.502l0.302,0.235
		l-0.215-0.016l1.599,0.533l-0.046-0.031l0.822,0.232l-0.525-0.09l0.088,0.055l-0.553-0.152l0.092,0.031l-0.689-0.117l2.422,1.873
		l-1.399-0.684l-1.596-1.289l-0.305-0.055l0.408,0.611l-0.302-0.146l0.042,0.043l0.29,0.146l0.271,0.406l0.818,0.805l4.854,3.162
		l-4.479-2.789l1.254,1.234l2.757,2.223l-2.338-1.809l2.115,2.088l-0.029,0.029L2159.341,1679.313z M963.535,544.768l3.104,3.611
		l-3.543-5.066l-0.649-0.588L963.535,544.768z M960.28,540.556l0.019-0.012l-0.011-0.009l-0.022,0.004l-0.011-0.009l0.01-0.019
		l-0.022-0.023l0.015-0.021l-0.017,0.02l-0.03-0.031v0.032l-0.054-0.05l0.033-0.003l-0.053-0.05l-0.02,0.015l-0.005-0.006
		l-0.049,0.045h0.031l-0.064,0.153l0.009,0.007l-0.021,0.021l-0.026-0.01l-0.016,0.003l-0.009-0.009l0.004-0.009l-0.021-0.068
		l-0.017,0.051l0.02,0.021l-0.025-0.006l-0.005,0.017l0.037,0.01l-0.053,0.034l0.014,0.01l-0.021,0.013l0.029-0.011l0.016,0.011
		l0.017-0.017h-0.012l0.014-0.04l0.021,0.016l-0.004-0.013l0.032,0.008l-0.008,0.02l0.038-0.009l0.039,0.009l0.015-0.007
		l0.005,0.005l-0.011,0.006h0.007l-0.05,0.058l0.023,0.011l0.047-0.059l0.028,0.021l0.017-0.014l0.027,0.006l0.003-0.01
		l-0.019-0.003l0.019-0.018l-0.062,0.004l-0.006-0.002l0.084-0.049l-0.001,0.036l0.086-0.068L960.28,540.556z M2063.032-692.803
		L965.174,533.789l-1.845,2.65l1.282-1.171l2.788-3.123l-2.274,2.649l2.577-2.358l-3.027,2.887l-0.613,0.71l-0.448,0.352
		l0.305-0.344l-1.536,1.503l0.091-0.128l-0.255,0.228l0.189-0.325l-0.269,0.21l0.315-0.288l0.686-1.18l-1.631,1.822l-0.018,0.146
		l-0.136,0.106l0.044-0.131l-0.022,0.022l0.189-0.625l-0.037,0.317l0.26-0.576l2.228-2.59l1.979-3.401l-1.722,3.104
		L2037.921-714.828C2046.323-707.603,2054.773-700.196,2063.032-692.803z M962.895,536.834l1.93-2.654l-1.342,1.498l-0.699,1.258
		L962.895,536.834z M1933.141-797.775L965.857,530.495l939.766-1347.879C1914.83-810.969,1924.087-804.369,1933.141-797.775z
		 M1906.24,1896.956c-9.069,6.331-18.321,12.651-27.496,18.784L963.036,546.045l-0.69-1.6L1906.24,1896.956z M1792.775-889.474
		L964.62,530.458c-0.017-0.008-0.036-0.014-0.055-0.023l798.892-1436.609C1773.233-900.738,1783.098-895.122,1792.775-889.474z
		 M1764.368,1985.667c-9.651,5.379-19.503,10.737-29.28,15.929L962.111,545.855l-0.19-1.035l1.861,3.338l0.604,1.486l0.172-0.076
		l-0.032-0.072L1764.368,1985.667z M1643.564-966.614L963.913,530.153l648.702-1510.439
		C1622.9-975.868,1633.313-971.268,1643.564-966.614z M1613.933,2059.718c-10.14,4.37-20.501,8.707-30.799,12.899L962.677,547.836
		l-0.396-1.365L1613.933,2059.718z M1486.922-1028.304L962.346,533.393l-0.115,0.466l0.062-0.301l-0.574,1.702l0.149-0.343
		l-0.042,0.329l-0.354,0.749l0.34-0.607l-0.099,0.797l-0.341,0.469l0.051-0.513l-0.343,0.915l0.369-1.159l-0.01,0.013l0.011-0.039
		l0.3-0.956l-0.262,0.577l0.051-0.5l0.499-1.487l-0.098,0.806l0.567-1.808l0.401-1.602l-0.257,1.135l492.237-1570.738
		C1465.559-1035.359,1476.336-1031.862,1486.922-1028.304z M1456.449,2118.213c-10.702,3.365-21.575,6.662-32.313,9.8
		L963.679,551.264L1456.449,2118.213z M1324.793-1073.696L963.136,529.894c-0.035-0.011-0.067-0.021-0.091-0.027L1291.9-1080.76
		C1302.792-1078.539,1313.859-1076.161,1324.793-1073.696z M1293.686,2160.399c-10.995,2.262-22.152,4.434-33.164,6.46
		L963.287,552.234L1293.686,2160.399z M1159.315-1102.269L962.146,532.596l-0.541,1.732l164.727-1640.244
		C1137.243-1104.82,1148.342-1103.594,1159.315-1102.269z M1127.946,2185.756c-11.078,1.123-22.337,2.151-33.461,3.05
		L961.569,547.094l0.105,0.365L1127.946,2185.756z M993.25-1113.906L960.819,509.958l-4.988-1624.194
		c1.503-0.006,3.005-0.006,4.51-0.006C971.275-1114.239,982.346-1114.126,993.25-1113.906z M970.787,540.106l-2.438,0.123
		l-0.27-0.04L970.787,540.106z M970.783,539.919l-1.752-0.084l0.175-0.024L970.783,539.919z M968.368,539.756l-0.242,0.036
		l-3.751-0.182l0.421-0.101L968.368,539.756z M967.442,540.277l-2.829,0.145l1.22-0.161l1.278-0.04L967.442,540.277z
		 M966.921,541.418l-2.997-0.207l-0.634-0.327l2.076,0.101L966.921,541.418z M966.29,538.979l-1.495,0.387l-1.459,0.045l1.019,0.07
		l-0.366,0.094l-1.019-0.156l-0.41,0.016l0.115-0.057l-0.136-0.021l-0.104,0.062l0.089,0.019l-0.239,0.072l-0.047-0.001l0.107-0.068
		l-0.327,0.055l-0.318-0.013l0.059-0.022h-0.03l0.251-0.117l0.062,0.01l0.072-0.024l0.231,0.015l-0.096,0.047l0.142,0.024
		l0.096-0.062l0.038,0.002l-0.034-0.003l0.397-0.201l-0.348,0.205l0.156,0.013l0.47-0.233L966.29,538.979z M965.347,535.403
		l-0.992,0.905l-1.139,0.712l-0.48,0.559l0.653-0.391l-1.437,1.303l0.021-0.01l-0.144,0.155l0.012-0.002l-0.304,0.378l0.11-0.028
		l-0.123,0.221l-0.108-0.018l-0.026,0.037l0.127-0.007l-0.021,0.04l0.049,0.01l-0.049,0.017l0.112,0.009l-0.231,0.172l-0.059-0.002
		l-0.001,0.009l-0.102,0.002l-0.122,0.177l0.062-0.024l-0.091,0.064v-0.001v0.001l-0.025-0.003l0.111-0.208l-0.065,0.025v-0.002
		l-0.01,0.005l0.005-0.028l-0.107,0.004l0.016-0.023l-0.036,0.023l-0.001-0.012l-0.014,0.006l-0.017-0.034l-0.011,0.008v-0.207
		l0.022,0.001l-0.006-0.074l0.022-0.005l0.091,0.014l-0.014,0.064l0.076-0.054l0.013,0.003l0.026-0.046l-0.02-0.005l0.077-0.238
		l-0.057,0.014l0.069-0.081l0.197-0.137l-0.005,0.05l0.181-0.099l-0.012,0.003l0.188-0.259l-0.177,0.086l0.845-0.91l-0.123,0.225
		l0.228-0.217l-0.029,0.042l0.439-0.431l0,0l0,0l0.677-0.643l-0.33,0.386L965.347,535.403z M963.538,540.478l-0.941,0.047
		l-0.3-0.154l0.771-0.023L963.538,540.478z M962.735,545.594l-0.924-1.383l-0.135-0.725l0.479,0.684L962.735,545.594z
		 M962.084,546.375l-0.69-1.695l0.064,0.631l-0.044-0.141l-0.044-0.551l-0.52-1.273l-0.005,0.029l-0.075-0.227v0.178l-0.059-0.107
		l0.018-0.172l-0.249-0.613l0.018-0.098l0.078,0.182l-0.07-0.219l0.003-0.014l0.252,0.451l0.01-0.08l-0.259-0.385l0.071-0.35
		l0.188,0.268v0.457l0.039-0.4l0.109,0.244v-0.088l0.037,0.055l-0.012,0.113l0.205,0.656l-0.229-0.465l-0.013,0.102l-0.138-0.207
		v0.096l0.125,0.227l-0.028,0.217l0.055,0.127v-0.299l0.374,0.678l-0.003-0.008l0.011,0.018l0.479,1.521l-0.192-0.359l0.383,0.967
		L962.084,546.375z M961.635,536.551l-0.14,0.622l-0.229,0.529l0.074-0.728L961.635,536.551z M961.572,538.276l-0.125,0.119
		l-0.019,0.166l-0.177,0.085l0.018-0.084l-0.099,0.097l0.01-0.093l-0.104,0.151l0.12-0.227l-0.002,0.011l0.265-0.206l-0.007,0.05
		L961.572,538.276z M960.911,539.913l-0.092,0.141l-0.002-0.002l0.017-0.028l-0.02,0.026l-0.044-0.062l0.009,0.038l-0.009-0.015
		v0.052l-0.093-0.073l0.078,0.096l-0.014,0.007l-0.121-0.05l-0.08,0.095l0.033,0.032l-0.011,0.005l-0.027-0.03l-0.018,0.021
		l0.015,0.025h-0.004l0.036,0.088l-0.054-0.08l-0.054,0.039l-0.003-0.01l-0.014,0.005l-0.011-0.003l0.018-0.024l-0.013-0.04
		l-0.021,0.016l0.015-0.029l0.005,0.002l-0.003-0.009l0.03-0.064l-0.02-0.04l0.025,0.023l-0.055-0.098l0.002-0.002l-0.007-0.004
		l0.022-0.013l0.001,0.005l0.117-0.065l-0.039-0.03l0.044-0.017l0.01,0.016l0.082-0.048l-0.037-0.053l0.02-0.041l-0.017,0.014
		l-0.021-0.038l-0.022,0.008l-0.029-0.041l0.045,0.021l-0.014-0.025l0.064,0.02l-0.034,0.012l0.033,0.018l0.011-0.023l0.012,0.011
		l-0.019,0.015l0.007,0.001l0.015-0.014l0.101,0.078l0.006-0.001l0.002,0.001l0.004-0.004l0.057,0.039l0.009-0.002l0.054,0.026
		l-0.027,0.019l0.024,0.022l-0.024,0.108l0.046-0.081L960.911,539.913z M960.771,550.807v1643.436h-0.794
		c-10.553,0-21.24-0.103-31.77-0.302l31.409-1643.13l-1.626-0.004L795.145,2186.07c-11.086-1.102-22.274-2.329-33.255-3.648
		L957.731,550.807h-0.313c0.104,0,0.21,0,0.313,0l0.598-4.977l0.228-0.725l-0.567,5.701c0.542,0.002,1.084,0.002,1.626,0.002
		l0.063-3.34l-0.076-0.744l0.06-0.287l0.029,0.369l0.011-0.572l0.298-1.451l0.112,0.605l-0.095,4.75l0.343-3.412l0.051,0.268
		l-0.404,3.654l0.013,0.148l-0.014-0.125l-0.002,0.139C960.259,550.807,960.515,550.807,960.771,550.807z M960.74,544.262
		l-0.267,2.199l-0.058-0.285l0.226-2.248L960.74,544.262z M960.435,529.19l-0.062,3.13l-0.17-2.099l0.117-0.986l-0.182-0.02
		l-0.01,0.098l-0.01-0.127L960.435,529.19z M960.293,533.834l-0.205,1.016l-0.151-0.818l0.116-2.562L960.293,533.834z
		 M959.898,544.242l-0.173,0.771l0.029-1.547L959.898,544.242z M959.606,542.658l-0.223,0.4l0.208,2.543l-0.071,0.32l-0.269-2.625
		l-0.295,0.533l0.263-0.844l-0.015-0.139l0.141-0.264v0.006l0.005-0.02l0.182-0.311L959.606,542.658z M959.604,537.92l-0.104-0.185
		l-0.017,0.083l-0.123-0.286l0.11,0.35l-0.039,0.188l-0.146-0.21l0.048-0.394l-0.014-0.028l-0.04,0.414l-0.376-0.637l0.01,0.115
		l-0.32-0.454l-0.096-0.936l-0.145-0.261l0.126,0.187l-0.318-1.006l0.131,0.711l-0.105-0.185l-0.222-1.086l0.01,0.021l-0.047-0.203
		l-0.43-1.358l0.301,0.736l-0.561-2.711l0.407,1.291l0.354,1.912l0.401,0.981l-0.075-0.732l1.022,2.927l-0.011,0.104l0.016,0.037
		l0.014-0.113l0.188,0.28l-0.044,0.217L959.604,537.92z M959.412,539.328l-0.051,0.014l0.029,0.026l-0.087-0.004l0.026,0.089
		l-0.05,0.03l-0.049-0.112l-0.009,0.005l0.05,0.112l-0.022,0.017l-0.091-0.087l-0.01,0.047l-0.029-0.012v0.003l-0.024-0.013
		l0.002-0.009l-0.012-0.012l0.001,0.017l-0.054-0.021l-0.011,0.001l-0.019-0.013l0.002,0.018l-0.055,0.014l0.077,0.103l-0.047,0.004
		l0.059,0.093h-0.005l0.03,0.058l0.005-0.034l-0.003-0.009l0.005-0.004l0.005,0.003l0.023-0.007l-0.001,0.017l0.006,0.018
		l-0.015,0.059l-0.002-0.002l0.002,0.005l-0.001,0.015l-0.025-0.029l-0.001,0.002l0.015,0.04l0.012-0.007l-0.003,0.016l0.002,0.003
		l-0.012,0.033l0.007,0.022h0.003l0.023,0.021l-0.006-0.031l0.011-0.003l0.018,0.043l-0.007,0.005l0.005,0.001l-0.008,0.015
		l0.003,0.052l-0.008-0.043l-0.019,0.03l-0.001-0.003l0.001,0.004l-0.043,0.161l0.063-0.049l0.012,0.07l-0.05,0.017l-0.026-0.03
		v0.006l-0.007-0.01l0.004-0.002l-0.023-0.037v0.002l-0.001-0.003l-0.006,0.005l0.002-0.008l-0.043-0.066l-0.042,0.033l-0.008-0.005
		l-0.014,0.018l-0.068-0.081l0.056-0.027l-0.002-0.044l0.003-0.004l-0.011-0.062l-0.022,0.013l-0.036-0.058l-0.124,0.076
		l-0.092-0.071l0.162-0.043l0.036,0.015l-0.013-0.019l0.042-0.011l-0.154-0.16l-0.094,0.005l-0.054-0.021l-0.183,0.025l0.025,0.011
		l-0.018,0.005l-0.018-0.016l-0.318,0.011l0.095,0.062l-0.147,0.035l0.343,0.177l0.093-0.023l0.159,0.103l-0.043,0.028l0.034,0.017
		l-0.074,0.04l-0.027-0.015l-0.115,0.069l-0.259-0.159l0.126-0.033l-0.357-0.174l-0.074,0.017l-0.207-0.128l-1.147,0.034
		l-0.374-0.103l0.227-0.035l1.032-0.055l-0.164-0.076l0.038-0.009l-0.179-0.087l-0.043,0.003l-0.019-0.008l-2.228-0.107
		l-1.533-0.429l3.101,0.211l-1.503-0.733L-675.82,292.9c1.656-11.01,3.449-22.157,5.329-33.128L954.534,538.066l-0.077-0.039
		l0.139,0.051l-0.376-0.142l0.122,0.046l-0.147-0.054l-1596.61-409.642c2.769-10.787,5.687-21.709,8.68-32.457L953.612,537.714
		L-592.377-32.239c3.872-10.497,7.908-21.115,12.002-31.548L950.054,536.301c-0.002,0.006-0.003,0.007-0.004,0.011l4.034,1.533
		l-0.355-0.174l1.294,0.47l-0.076-0.02l0.422,0.156l-0.113-0.017l0.4,0.206l-0.733-0.257l1.497,0.648l-0.273-0.168l0.896,0.288
		l-1.392-0.598l2.097,0.775l-0.164,0.021l-0.345-0.126l0.223,0.144l-0.021,0.004l0.153,0.081l-0.394-0.019l0.12,0.062l0.274-0.041
		l0.191,0.124l0.163-0.008l0.396,0.154l-0.211-0.164l0.019-0.001l-0.366-0.133l0.144-0.022l-0.017-0.011l0.029,0.009l0.333-0.053
		l0.181,0.146l-0.299-0.016l0.188,0.07l0.167-0.01l0.136,0.109l-0.074-0.111l0.067-0.002l-0.258-0.202l0.049-0.007l-0.055-0.08
		l-0.163,0.021l-0.081-0.031l0.046,0.035l-0.356,0.047l-0.163-0.126l0.44,0.03l-0.764-0.302l1.038,0.318l-0.024-0.036l0.022,0.007
		l-0.292-0.354l-0.511-0.075l0.336,0.272l-0.642-0.164l-0.244-0.19l-0.604-0.138l0.544,0.091l-2.068-1.598l1.364,0.669l1.277,1.029
		l0.537,0.09l-0.32-0.387l0.149,0.073l-0.116-0.171l-1.256-1.191l0.324,0.201l-0.275-0.335l-0.602-0.391l-1.967-1.866l-2.137-1.725
		l1.736,1.345L-240.476-598.171c7.509-7.919,15.239-15.908,22.971-23.748L953.716,533.404l-1.092-1.322l1.389,1.615l2.253,2.221
		l-2.184-3.268L-119.554-713.465c8.363-7.202,16.906-14.421,25.394-21.441L955.991,534.327L954.227,531l2.028,3.646l1.942,2.349
		l0.376,0.868l-1.485-1.722l0.911,1.487l0.735,0.611l-0.005-0.046l0.035,0.029l-0.433-1.069l0.296,0.358l-0.174-0.838l-0.761-1.09
		l-0.921-2.262l1.354,2.021l0.18,0.614l-0.103-0.5l0.095,0.139l0.265,1.23l-0.05-0.07l0.151,0.802l-0.059-0.581l0.41,1.399
		l-0.018-0.02l0.045,0.119l-0.037-0.025l0.112,0.278l-0.007-0.002l0.004,0.002l-0.091-0.048l0.013,0.148l-0.025-0.004l-0.115-0.212
		l0.088,0.209l-0.091-0.016l-0.021-0.105l0.02,0.105l-0.101-0.014l-0.026-0.246l-0.473-0.246l0.025,0.047l0.465,0.443h-0.002
		l0.011,0.006v-0.004l0.112,0.057l-0.007-0.037l0.159,0.171h-0.008l0.016,0.072l0.022-0.001l0.046,0.067l-0.028-0.071l0.05-0.078
		l0.014,0.007l-0.006,0.064l0.048-0.011l0.016,0.06l-0.006,0.034l0.017,0.002l0.029,0.103l-0.027-0.01l0.108,0.104l0.05-0.002
		L959.412,539.328z M956.678,536.327l0.787,0.773l-0.726-1.363l-2.487-2.885L956.678,536.327z M959.365,538.404l-0.035,0.166
		l-0.092-0.296l-0.029,0.291l0.107,0.082l-0.001,0.004l-0.109-0.07l-0.002,0.018l-0.006-0.007l0.003-0.016l-0.089-0.086l0.092,0.071
		l0.033-0.29l-0.012-0.035l0.014,0.018l0.001-0.018l-0.001,0.018L959.365,538.404z M958.64,534.012l-0.521-1.788L790.491-1105.6
		c11.02-1.128,22.193-2.156,33.207-3.063L958.64,534.012z M958.471,542.139l-0.397,0.875l-1.432,1.668l0.731-1.314L958.471,542.139z
		 M958.435,542.979l-0.142,0.693l-0.489,0.705L958.435,542.979z M958.084,535.2l-2.024-3.624l-0.494-1.216l-0.148,0.062
		L154.174-904.885c9.636-5.378,19.475-10.741,29.239-15.939L957.646,533.704L958.084,535.2z M958.071,544.773l-0.153,0.746
		l-0.336,0.787L157.716,1986.857c-9.729-5.4-19.527-10.972-29.123-16.555L955.305,549.529c0.062,0.025,0.143,0.062,0.241,0.105
		l0.858-1.998L958.071,544.773z M958.067,540.625l-0.129,0.048l-0.29-0.05l0.002-0.001l-0.005,0.001l-0.144-0.023l-0.056,0.033
		l0.119,0.018l-0.285,0.1l-0.019-0.002l-0.271,0.064l0.157-0.069l-0.125-0.011l-0.183,0.088l-2.863,0.148l1.365-0.355l-0.261-0.016
		l0.663-0.086l0.808,0.038l0.293-0.01l0.468,0.049l-0.037,0.018l0.12,0.017l0.061-0.027l0.046,0.004l-0.037-0.01l0.165-0.074
		l-0.128,0.084l0.174,0.007l0.305-0.1l-0.291,0.103L958.067,540.625z M957.772,546.238l-0.21,1.031L466.554,2119.172
		c-10.676-3.335-21.458-6.821-32.042-10.368L957.772,546.238z M957.556,541.893l-0.647,0.824l-1.267,0.756l1.508-1.379
		L957.556,541.893z M957.516,533.258L304.582-979.101c10.13-4.371,20.483-8.717,30.766-12.914L957.042,531.643L957.516,533.258z
		 M957.512,544.246l-0.714,1.576L15.505,1898.208c-9.035-6.289-18.16-12.777-27.127-19.287L954.109,548.934
		c0.041,0.027,0.084,0.049,0.127,0.074l0.589-1.059L957.512,544.246z M957.43,535.209L12.336-815.999
		c8.967-6.272,18.165-12.571,27.338-18.719L956.338,532.674L957.43,535.209z M957.286,541.297l-0.034,0.027l-0.59,0.152l0.475-0.064
		l-0.102,0.08l-1.156,0.186l0.022-0.012l-0.396,0.111l0.229-0.086l-0.298,0.047l0.395-0.096l-0.051,0.031l0.592-0.16
		L957.286,541.297z M957.217,529.77c-0.061,0.017-0.122,0.033-0.176,0.053L624.738-1080.084c10.885-2.243,21.962-4.416,32.923-6.448
		L957.217,529.77z M956.567,543.252l-0.348,0.477l0.044-0.033l-0.292,0.373l-3.401,3.805l3.205-3.732l-3.628,3.312L956.567,543.252z
		 M956.562,544.275l-0.912,1.564L-116.816,1795.82c-8.419-7.227-16.863-14.621-25.101-21.975L953.02,548.24
		c0.108,0.08,0.215,0.152,0.31,0.223l1.812-2.598L956.562,544.275z M956.562,548.689l-647.77,1512.223
		c-10.28-4.402-20.686-8.99-30.937-13.633L956.562,548.689z M956.46,543.115l-2.278,1.693l0.927-0.848L956.46,543.115z
		 M956.373,538.485l-1.249-0.316l0.251,0.042l-0.016-0.009l0.896,0.208l-0.301-0.044L956.373,538.485z M956.109,539.627
		l-0.992,0.032l0.697-0.107L956.109,539.627z M955.925,538.195l-1.555-0.61L-444.792-333.791
		c5.865-9.419,11.906-18.905,17.962-28.202L950.695,534.792c-0.005,0.006-0.009,0.017-0.012,0.026l0.213,0.105L955.925,538.195z
		 M955.694,527.042L462.007-1037.743c10.714-3.379,21.596-6.69,32.343-9.837L955.694,527.042z M955.667,556.604L629.554,2161.069
		c-11.052-2.243-22.199-4.631-33.129-7.088L955.667,556.604z M955.211,536.712l-1.632-0.845L-349.224-471.255
		c6.767-8.757,13.716-17.563,20.655-26.178L951.355,533.604c-0.026,0.041-0.051,0.08-0.074,0.119l0.974,0.605L955.211,536.712z
		 M954.659,539.56l-1.087,0.143l-1.063,0.034l-0.302-0.05L954.659,539.56z M954.647,540.457l-0.36,0.083l-3.412-0.234l0.171-0.026
		L954.647,540.457z M954.438,541.975l-0.918,0.318L954.438,541.975z M954.278,541.795l-0.631,0.219L-675.119,791.717
		c-1.687-10.999-3.283-22.164-4.743-33.188L954.278,541.795z M954.213,545.287L-237.938,1680.84
		c-7.584-7.96-15.212-16.13-22.672-24.282L951.778,547.008c0.034,0.047,0.061,0.08,0.077,0.104L954.213,545.287z M954.102,539.111
		l-1646.412-79.897c0.538-11.062,1.192-22.264,1.948-33.288l1642.689,112.73L954.102,539.111z M954.001,543.85L-346.87,1554.294
		c-6.854-8.825-13.705-17.832-20.358-26.77L954.001,543.85z M953.898,540.632l-1.824,0.432L-692.077,625.42
		c-0.566-11.018-1.028-22.209-1.375-33.261L953.898,540.632z M953.509,543.098l-2.798,1.674L953.509,543.098z M953.062,542.682
		L-524.282,1270.82c-4.917-9.976-9.805-20.148-14.519-30.232L952.733,542.803L953.062,542.682z M952.56,536.874l-2.37-0.933
		L-526.163-186.992c4.9-10.004,9.967-20.096,15.062-29.99L952.56,536.874z M952.266,542.492l-1.424,0.494L-641.255,956.209
		c-2.799-10.773-5.522-21.731-8.104-32.572L952.266,542.492z M951.7,539.762l-2.54,0.076l2.288-0.114L951.7,539.762z
		 M950.564,544.938l-1393.249,872.23c-5.918-9.456-11.819-19.096-17.537-28.658L950.535,544.875
		C950.546,544.896,950.556,544.92,950.564,544.938z M950.024,543.615l-1540.769,573.03c-3.893-10.463-7.729-21.112-11.405-31.65
		L949.991,543.521C950.003,543.559,950.014,543.588,950.024,543.615z"/>
</g>
<radialGradient id="SVGID_3_" cx="782.1494" cy="599.8008" r="657.1788" gradientTransform="matrix(0 -0.9309 1.4763 0 86.4904 1251.0596)" gradientUnits="userSpaceOnUse">
	<stop  offset="0" style="stop-color:#1A1A1B"/>
	<stop  offset="0.8587" style="stop-color:#1A1A1B;stop-opacity:0.1413"/>
	<stop  offset="1" style="stop-color:#1A1A1B;stop-opacity:0"/>
</radialGradient>
<ellipse fill="url(#SVGID_3_)" cx="960" cy="540" rx="933.366" ry="628.958"/>
</svg>
